<svg width="84" height="84" viewBox="0 0 84 84" fill="none" xmlns="http://www.w3.org/2000/svg">
<g clip-path="url(#clip0_108_221)">
<path fill-rule="evenodd" clip-rule="evenodd" d="M28.5083 57.8976C34.3975 63.2014 42.1938 66.4284 50.739 66.4284C69.0854 66.4284 83.9817 51.5449 83.9817 33.2142C83.9817 14.8835 69.0854 0 50.739 0C32.3925 0 17.4962 14.8835 17.4962 33.2142C17.4962 41.752 20.726 49.5416 26.0344 55.4258L3.8147e-05 81.4377L2.474 83.9095L28.5083 57.8976ZM50.739 3.49623C34.324 3.49623 20.9955 16.8134 20.9955 33.2142C20.9955 49.615 34.324 62.9322 50.739 62.9322C67.1539 62.9322 80.4825 49.615 80.4825 33.2142C80.4825 16.8134 67.1539 3.49623 50.739 3.49623Z" fill="white"/>
</g>
<defs>
<clipPath id="clip0_108_221">
<rect width="83.9817" height="83.9095" fill="white" transform="matrix(-1 0 0 1 83.9817 0)"/>
</clipPath>
</defs>
</svg>
